<?xml version="1.0" encoding="utf-8"?>
<!-- Generator: Adobe Illustrator 16.0.0, SVG Export Plug-In . SVG Version: 6.00 Build 0) -->
<!DOCTYPE svg PUBLIC "-//W3C//DTD SVG 1.1//EN" "http://www.w3.org/Graphics/SVG/1.1/DTD/svg11.dtd">
<svg version="1.1" id="Layer_1" xmlns="http://www.w3.org/2000/svg" xmlns:xlink="http://www.w3.org/1999/xlink" x="0px" y="0px" width="800px" height="600px" viewBox="0 0 800 600" enable-background="new 0 0 800 600" xml:space="preserve">
	<g>
		<path fill="#F37B20" d="M522.284,266.006c41.212,0,74.886-33.667,74.886-74.95c0-41.288-33.674-74.963-74.886-74.963
		c-41.335,0-74.964,33.675-74.964,74.963C447.32,232.338,480.949,266.006,522.284,266.006"/>
		<polygon fill="#FFFFFF" points="552.837,232.701 522.329,158.329 501.037,205.704 448.111,205.61 448.137,195.417 494.451,195.508
		522.764,132.524 554.216,209.214 566.806,186.552 597.079,186.435 597.124,196.622 572.821,196.715 	"/>
		<path
			fill="#F37B20"
			d="M344.181,115.422h6.249l-6.249,15.755V115.422z M344.181,248.386c2.791,4.96,6.249,9.124,10.419,12.524
		c8.153,6.799,18.515,10.219,31.064,10.219c13.347,0,24.614-4.546,33.985-13.645c9.351-9.098,14.045-20.282,14.045-33.434
		c0-11.754-3.775-20.765-11.287-26.888c-7.537-6.106-15.548-11.08-24.109-14.927l-4.339-2.065l-4.125-1.82
		c-7.842-3.996-14.253-7.751-19.292-11.211c-5.077-3.568-7.615-8.704-7.615-15.442c0-6.713,2.571-12.184,7.693-16.422
		c5.135-4.205,11.371-6.319,18.708-6.319c4.767,0,8.788,0.918,12.162,2.749c3.387,1.893,6.605,4.851,9.648,8.988l1.619,2.497
		c0.459,0.311,1.056,1.124,1.885,2.304l13.527-8.72c-4.442-7.818-9.953-13.736-16.707-17.821
		c-6.619-4.021-13.794-6.064-21.435-6.064c-13.023,0-23.675,3.694-31.88,11.025c-8.27,7.347-12.414,16.78-12.414,28.315
		c0,10.802,3.698,19.199,11.223,25.108c7.531,5.925,15.548,10.763,24.116,14.58l2.791,1.386l2.746,1.114
		c8.231,4.112,15.276,8.186,21.099,12.184c5.834,4.005,8.716,9.859,8.716,17.682c0,8.898-2.882,16.267-8.846,22.154
		c-5.913,5.88-13.353,8.852-22.348,8.852c-7.958,0-14.564-2.486-19.764-7.376c-5.207-4.863-8.878-11.902-11.016-21.111
		l-10.271,3.154V248.386z M193.613,230.04l47.953-122.656l45.24,122.909l45.065-114.871h12.31v15.755l-57.88,145.333
		l-45.175-122.743l-48.238,122.607l-58.793-160.952h18.644L193.613,230.04z M344.181,229.956l-6.294,1.93
		c1.451,6.171,3.517,11.682,6.294,16.5V229.956z"/>
		<path
			fill="#231F20"
			d="M522.614,105.342c24.446,0.235,44.994,8.611,61.559,24.993c16.824,16.701,25.275,37.215,25.275,61.61
		c0,24.139-8.419,44.622-25.23,61.4c-16.759,16.882-37.248,25.236-61.383,25.236h-0.221v-16.066
		c12.654-0.013,24.355-3.115,35.15-9.26c10.867-6.197,19.376-14.713,25.45-25.469c6.112-10.75,9.157-22.72,9.157-35.84
		c0-13.1-3.045-24.967-9.157-35.547c-6.074-10.583-14.675-19.018-25.689-25.371c-11.003-6.28-22.613-9.485-34.911-9.545V105.342z
		 M521.501,105.342h1.113v16.141h-0.33c-12.259,0-23.753,3.192-34.664,9.545c-10.932,6.353-19.421,14.98-25.612,25.687
		c-6.106,10.779-9.131,22.762-9.131,35.992c0,19.602,6.768,36.141,20.295,49.604c13.599,13.463,29.977,20.204,49.112,20.204h0.33
		v16.054c-24.291-0.039-44.929-8.36-61.675-25.087c-16.792-16.753-25.256-37.022-25.256-60.775c0-15.853,3.84-30.562,11.508-44.09
		c7.674-13.507,18.113-24.09,31.368-31.777C491.803,109.165,506.114,105.342,521.501,105.342"/>
		<path
			fill="#231F20"
			d="M615.225,186.662c3.866-1.065,7.978-1.684,12.329-1.684c11.656,0,21.111,3.811,28.312,11.349
		c7.188,7.505,10.854,16.384,10.854,26.616c0,7.188-1.703,13.917-5.193,20.23c-3.459,6.25-10.187,14.817-20.133,25.566
		l-31.531,34.07h58.521v12.304h-86.121l48.471-52.416c9.844-10.529,16.242-18.294,19.201-23.429
		c2.966-5.058,4.436-10.413,4.436-16.047c0-7.13-2.654-13.269-7.959-18.433c-5.375-5.106-11.889-7.703-19.596-7.703
		c-4.396,0-8.386,0.787-11.967,2.406c0.271-3.105,0.434-6.191,0.434-9.357C615.282,188.99,615.27,187.805,615.225,186.662"/>
	</g>
	<g>
		<path
			fill="#231F20"
			d="M367.229,377.37v2.03h-10.507v-1.141c0-3.348-0.262-5.536-0.784-6.572
		c-0.523-1.029-1.449-1.548-2.778-1.548c-1.354,0-2.292,0.519-2.814,1.548c-0.523,1.036-0.784,3.225-0.784,6.572v21.727
		c0,3.303,0.272,5.485,0.819,6.554c0.545,1.068,1.496,1.603,2.849,1.603c1.305,0,2.213-0.498,2.725-1.496
		c0.51-0.997,0.766-2.907,0.766-5.734v-2.956h10.507v2.885c0,5.748-1.021,9.753-3.063,12.02c-2.043,2.27-5.616,3.403-10.721,3.403
		c-5.509,0-9.332-1.324-11.469-3.974c-2.137-2.645-3.206-7.554-3.206-14.726v-16.918c0-7.123,1.074-12.003,3.224-14.639
		c2.148-2.636,5.988-3.953,11.522-3.953c5.058,0,8.606,1.137,10.649,3.403C366.207,367.725,367.229,371.693,367.229,377.37z"/>
		<path
			fill="#231F20"
			d="M404.597,380.646v16.918c0,7.123-1.075,12.02-3.224,14.693c-2.149,2.668-5.965,4.006-11.45,4.006
		c-5.509,0-9.332-1.324-11.469-3.974c-2.137-2.645-3.206-7.554-3.206-14.726v-16.918c0-7.101,1.069-11.971,3.206-14.619
		c2.137-2.648,5.959-3.973,11.469-3.973c5.508,0,9.332,1.324,11.469,3.973C403.528,368.676,404.597,373.546,404.597,380.646z
		 M393.805,378.26c0-3.393-0.28-5.595-0.837-6.604c-0.559-1.011-1.574-1.516-3.045-1.516c-1.449,0-2.458,0.524-3.027,1.567
		c-0.57,1.046-0.855,3.231-0.855,6.553v21.727c0,3.374,0.278,5.562,0.837,6.573c0.557,1.01,1.572,1.512,3.045,1.512
		c1.447,0,2.458-0.515,3.027-1.551c0.57-1.029,0.855-3.209,0.855-6.534V378.26z"/>
		<path fill="#231F20" d="M413.688,362.838h14.816l4.736,37.719h0.535l5.378-37.719h14.603v52.535h-8.975v-43.097h-0.678
		l-6.125,43.097h-9.688l-5.413-43.097h-0.713v43.097h-8.477V362.838z"/>
		<path fill="#231F20" d="M462.916,362.838h14.816l4.737,37.719h0.534l5.378-37.719h14.604v52.535h-8.977v-43.097h-0.676
		l-6.127,43.097h-9.688l-5.413-43.097h-0.713v43.097h-8.477V362.838z"/>
		<path
			fill="#231F20"
			d="M512.146,362.838h10.827v37.148c0,3.348,0.261,5.533,0.783,6.554c0.521,1.023,1.473,1.531,2.85,1.531
		c1.354,0,2.285-0.508,2.797-1.531c0.51-1.021,0.766-3.206,0.766-6.554v-37.148h10.863v34.727c0,7.101-1.064,11.993-3.188,14.674
		c-2.126,2.685-5.895,4.025-11.308,4.025c-5.392,0-9.137-1.324-11.238-3.974c-2.101-2.645-3.151-7.554-3.151-14.726V362.838z"/>
		<path fill="#231F20" d="M550.298,362.838h14.176l7.801,44.45h0.712l-0.784-44.45h8.834v52.535h-14.318l-7.658-44.485h-0.712
		l0.712,44.485h-8.762V362.838z"/>
		<path fill="#231F20" d="M590.517,362.838h10.863v52.535h-10.863V362.838z"/>
		<path fill="#231F20" d="M608.154,362.838h27.354v8.121h-8.121v44.414h-11.148v-44.414h-8.085V362.838z"/>
		<path fill="#231F20" d="M638.328,362.838h10.935l4.595,22.118h0.534l4.346-22.118h9.651l-9.794,31.379v21.156h-10.793v-21.156
		L638.328,362.838z"/>
		<path
			fill="#231F20"
			d="M474.628,440.421h11.326c5.792,0,9.877,1.095,12.252,3.277c2.373,2.188,3.562,5.866,3.562,11.041v3.419
		c0,4.915-1.136,8.532-3.401,10.847c-2.269,2.315-5.801,3.472-10.596,3.472h-2.992v20.482h-10.15V440.421z M484.778,448.257v16.455
		h0.961c1.947,0,3.307-0.486,4.078-1.457c0.771-0.975,1.158-2.72,1.158-5.239v-3.134c0-2.493-0.387-4.22-1.158-5.181
		c-0.771-0.962-2.131-1.444-4.078-1.444H484.778z"/>
		<path
			fill="#231F20"
			d="M531.372,466.104v26.854h-9.831l-0.427-4.241c-1.141,1.78-2.322,3.082-3.545,3.901
		c-1.224,0.819-2.57,1.227-4.042,1.227c-2.659,0-4.626-0.854-5.895-2.563c-1.271-1.71-1.905-4.333-1.905-7.868v-4.385
		c0-3.18,1.145-5.504,3.438-6.98c2.29-1.47,6.272-2.383,11.949-2.739v-2.532c0-1.994-0.179-3.335-0.535-4.021
		c-0.355-0.689-0.961-1.036-1.816-1.036c-0.975,0-1.669,0.337-2.083,0.997c-0.417,0.667-0.624,1.82-0.624,3.458v0.603h-9.117v-0.673
		c0-4.016,0.884-6.794,2.653-8.335c1.768-1.544,4.944-2.318,9.527-2.318c4.653,0,7.858,0.768,9.616,2.299
		C530.492,459.282,531.372,462.066,531.372,466.104z M521.114,475.539c-1.948,0.194-3.277,0.625-3.99,1.302
		c-0.712,0.677-1.068,1.823-1.068,3.438v2.383c0,1.833,0.189,3.076,0.57,3.743c0.379,0.664,1.02,0.997,1.924,0.997
		c0.926,0,1.584-0.343,1.977-1.036c0.392-0.686,0.588-1.923,0.588-3.704V475.539z"/>
		<path
			fill="#231F20"
			d="M556.987,456.273v7.868c-2.755,0.052-4.672,0.632-5.752,1.749c-1.081,1.113-1.62,3.085-1.62,5.912v21.156
		h-10.294v-36.614h10.009l0.285,4.307c1.091-1.612,2.142-2.759,3.151-3.436s2.143-1.014,3.402-1.014
		c0.094,0,0.231,0.014,0.409,0.033C556.757,456.261,556.893,456.273,556.987,456.273z"/>
		<path
			fill="#231F20"
			d="M573.413,446.942v9.402h4.738v6.197h-4.738v18.592c0,2.066,0.189,3.426,0.57,4.077
		c0.379,0.654,1.056,0.98,2.03,0.98c0.379,0,0.784-0.032,1.211-0.09c0.427-0.059,0.948-0.162,1.567-0.305v7.233
		c-1.425,0.259-2.672,0.46-3.74,0.603s-1.982,0.213-2.742,0.213c-3.562,0-5.983-0.757-7.266-2.279
		c-1.282-1.515-1.924-4.772-1.924-9.759v-19.266h-3.882v-6.197h3.882v-5.413L573.413,446.942z"/>
		<path
			fill="#231F20"
			d="M609.358,466.246v26.713h-10.363v-25.611c0-1.684-0.168-2.85-0.499-3.491
		c-0.333-0.641-0.903-0.958-1.71-0.958c-0.832,0-1.424,0.337-1.781,1.014c-0.355,0.677-0.533,1.823-0.533,3.436v25.611h-10.294
		v-36.614h10.009l0.285,4.235c1.186-1.755,2.415-3.05,3.686-3.879c1.27-0.832,2.641-1.25,4.114-1.25
		c2.611,0,4.445,0.774,5.503,2.318C608.829,459.311,609.358,462.138,609.358,466.246z"/>
		<path
			fill="#231F20"
			d="M642.845,471.874v4.378h-15.457v6.197c0,1.923,0.195,3.257,0.588,3.988
		c0.392,0.738,1.062,1.107,2.012,1.107c1.068,0,1.822-0.375,2.262-1.123s0.659-2.069,0.659-3.973v-1.315h9.937v1.244
		c0,4.041-0.996,6.961-2.991,8.762c-1.995,1.807-5.2,2.706-9.616,2.706c-4.939,0-8.365-1.165-10.275-3.506
		c-1.912-2.338-2.867-6.642-2.867-12.91v-5.556c0-6.246,0.938-10.543,2.813-12.894c1.874-2.351,5.211-3.529,10.009-3.529
		c4.891,0,8.268,1.153,10.133,3.458C641.913,461.212,642.845,465.534,642.845,471.874z M632.908,466.706
		c0-2.04-0.209-3.451-0.624-4.235c-0.416-0.783-1.121-1.178-2.119-1.178c-1.021,0-1.74,0.388-2.154,1.159
		c-0.416,0.771-0.623,2.188-0.623,4.254v3.704h5.521V466.706z"/>
		<path
			fill="#231F20"
			d="M668.317,456.273v7.868c-2.756,0.052-4.672,0.632-5.752,1.749c-1.082,1.113-1.621,3.085-1.621,5.912v21.156
		h-10.293v-36.614h10.009l0.284,4.307c1.092-1.612,2.143-2.759,3.152-3.436c1.009-0.677,2.143-1.014,3.402-1.014
		c0.094,0,0.23,0.014,0.409,0.033C668.086,456.261,668.222,456.273,668.317,456.273z"/>
	</g>
	<rect x="132.838" y="336.676" fill="#231F20" width="535.545" height="2.483"/>
</svg>
